<?xml version="1.0" encoding="UTF-8" standalone="no"?>
<!DOCTYPE svg PUBLIC "-//W3C//DTD SVG 1.1//EN"
 "http://www.w3.org/Graphics/SVG/1.1/DTD/svg11.dtd">
<!-- Generated by graphviz version 2.42.3 (20191010.1750)
 -->
<!-- Pages: 1 -->
<svg width="479pt" height="178pt"
 viewBox="0.00 0.00 345.16 128.00" xmlns="http://www.w3.org/2000/svg" xmlns:xlink="http://www.w3.org/1999/xlink">
<g id="graph0" class="graph" transform="scale(0.72 0.72) rotate(0) translate(4 124)">
<polygon fill="transparent" stroke="transparent" points="-4,4 -4,-124 341.16,-124 341.16,4 -4,4"/>
<!-- df_start -->
<g id="node1" class="node">
<title>df_start</title>
<path fill="#f7f7f7" stroke="#f7f7f7" d="M12,-0.5C12,-0.5 81,-0.5 81,-0.5 87,-0.5 93,-6.5 93,-12.5 93,-12.5 93,-107.5 93,-107.5 93,-113.5 87,-119.5 81,-119.5 81,-119.5 12,-119.5 12,-119.5 6,-119.5 0,-113.5 0,-107.5 0,-107.5 0,-12.5 0,-12.5 0,-6.5 6,-0.5 12,-0.5"/>
<text text-anchor="start" x="23.66" y="-99.8" font-family="Arial" font-weight="bold" font-size="14.00">df_start</text>
<text text-anchor="start" x="13.15" y="-79.8" font-family="Arial" font-weight="bold" font-size="14.00">↓ 100 &#160;→ 3</text>
<polygon fill="none" stroke="darkgrey" points="10.5,-71 10.5,-113 83.5,-113 83.5,-71 10.5,-71"/>
<text text-anchor="start" x="12.5" y="-53.8" font-family="Arial" font-size="14.00">a</text>
<text text-anchor="start" x="12.5" y="-33.8" font-family="Arial" font-size="14.00">b</text>
<text text-anchor="start" x="12.5" y="-13.8" font-family="Arial" font-size="14.00">c</text>
</g>
<!-- df_start—square—df_end -->
<g id="node2" class="node">
<title>df_start—square—df_end</title>
<ellipse fill="deepskyblue" stroke="deepskyblue" cx="168.58" cy="-60" rx="39.66" ry="18"/>
<text text-anchor="middle" x="168.58" y="-56.85" font-family="Arial" font-size="14.00">square</text>
</g>
<!-- df_start&#45;&gt;df_start—square—df_end -->
<g id="edge1" class="edge">
<title>df_start&#45;&gt;df_start—square—df_end</title>
<path fill="none" stroke="grey" d="M93.24,-60C101.53,-60 110.21,-60 118.59,-60"/>
<polygon fill="grey" stroke="grey" points="118.62,-63.5 128.62,-60 118.62,-56.5 118.62,-63.5"/>
</g>
<!-- df_end -->
<g id="node3" class="node">
<title>df_end</title>
<path fill="#f7f7f7" stroke="#f7f7f7" d="M256.16,-0.5C256.16,-0.5 325.16,-0.5 325.16,-0.5 331.16,-0.5 337.16,-6.5 337.16,-12.5 337.16,-12.5 337.16,-107.5 337.16,-107.5 337.16,-113.5 331.16,-119.5 325.16,-119.5 325.16,-119.5 256.16,-119.5 256.16,-119.5 250.16,-119.5 244.16,-113.5 244.16,-107.5 244.16,-107.5 244.16,-12.5 244.16,-12.5 244.16,-6.5 250.16,-0.5 256.16,-0.5"/>
<text text-anchor="start" x="269.75" y="-99.8" font-family="Arial" font-weight="bold" font-size="14.00">df_end</text>
<text text-anchor="start" x="257.31" y="-79.8" font-family="Arial" font-weight="bold" font-size="14.00">↓ 100 &#160;→ 3</text>
<polygon fill="none" stroke="darkgrey" points="254.66,-71 254.66,-113 327.66,-113 327.66,-71 254.66,-71"/>
<text text-anchor="start" x="256.66" y="-53.8" font-family="Arial" font-size="14.00">a</text>
<text text-anchor="start" x="256.66" y="-33.8" font-family="Arial" font-size="14.00">b</text>
<text text-anchor="start" x="256.66" y="-13.8" font-family="Arial" font-size="14.00">c</text>
</g>
<!-- df_start—square—df_end&#45;&gt;df_end -->
<g id="edge2" class="edge">
<title>df_start—square—df_end&#45;&gt;df_end</title>
<path fill="none" stroke="grey" d="M208.23,-60C216.41,-60 225.2,-60 233.87,-60"/>
<polygon fill="grey" stroke="grey" points="233.95,-63.5 243.95,-60 233.95,-56.5 233.95,-63.5"/>
</g>
</g>
</svg>
