<?xml version="1.0" encoding="UTF-8" standalone="no"?>
<!DOCTYPE svg PUBLIC "-//W3C//DTD SVG 1.1//EN"
 "http://www.w3.org/Graphics/SVG/1.1/DTD/svg11.dtd">
<!-- Generated by graphviz version 2.42.3 (20191010.1750)
 -->
<!-- Pages: 1 -->
<svg width="749pt" height="261pt"
 viewBox="0.00 0.00 539.00 188.00" xmlns="http://www.w3.org/2000/svg" xmlns:xlink="http://www.w3.org/1999/xlink">
<g id="graph0" class="graph" transform="scale(0.72 0.72) rotate(0) translate(4 184)">
<polygon fill="transparent" stroke="transparent" points="-4,4 -4,-184 535,-184 535,4 -4,4"/>
<!-- df_start -->
<g id="node1" class="node">
<title>df_start</title>
<path fill="#f7f7f7" stroke="#f7f7f7" d="M12,-30.5C12,-30.5 81,-30.5 81,-30.5 87,-30.5 93,-36.5 93,-42.5 93,-42.5 93,-137.5 93,-137.5 93,-143.5 87,-149.5 81,-149.5 81,-149.5 12,-149.5 12,-149.5 6,-149.5 0,-143.5 0,-137.5 0,-137.5 0,-42.5 0,-42.5 0,-36.5 6,-30.5 12,-30.5"/>
<text text-anchor="start" x="23.66" y="-129.8" font-family="Arial" font-weight="bold" font-size="14.00">df_start</text>
<text text-anchor="start" x="13.15" y="-109.8" font-family="Arial" font-weight="bold" font-size="14.00">↓ 100 &#160;→ 3</text>
<polygon fill="none" stroke="darkgrey" points="10.5,-101 10.5,-143 83.5,-143 83.5,-101 10.5,-101"/>
<text text-anchor="start" x="12.5" y="-83.8" font-family="Arial" font-size="14.00">a</text>
<text text-anchor="start" x="12.5" y="-63.8" font-family="Arial" font-size="14.00">b</text>
<text text-anchor="start" x="12.5" y="-43.8" font-family="Arial" font-size="14.00">c</text>
</g>
<!-- df_start—compute_polynomial_features—df_end -->
<g id="node2" class="node">
<title>df_start—compute_polynomial_features—df_end</title>
<ellipse fill="deepskyblue" stroke="deepskyblue" cx="265.5" cy="-90" rx="136.5" ry="18"/>
<text text-anchor="middle" x="265.5" y="-86.85" font-family="Arial" font-size="14.00">compute_polynomial_features</text>
</g>
<!-- df_start&#45;&gt;df_start—compute_polynomial_features—df_end -->
<g id="edge1" class="edge">
<title>df_start&#45;&gt;df_start—compute_polynomial_features—df_end</title>
<path fill="none" stroke="grey" d="M93.25,-90C101.12,-90 109.64,-90 118.56,-90"/>
<polygon fill="grey" stroke="grey" points="118.77,-93.5 128.77,-90 118.77,-86.5 118.77,-93.5"/>
</g>
<!-- df_end -->
<g id="node3" class="node">
<title>df_end</title>
<path fill="#f7f7f7" stroke="#f7f7f7" d="M450,-0.5C450,-0.5 519,-0.5 519,-0.5 525,-0.5 531,-6.5 531,-12.5 531,-12.5 531,-167.5 531,-167.5 531,-173.5 525,-179.5 519,-179.5 519,-179.5 450,-179.5 450,-179.5 444,-179.5 438,-173.5 438,-167.5 438,-167.5 438,-12.5 438,-12.5 438,-6.5 444,-0.5 450,-0.5"/>
<text text-anchor="start" x="463.59" y="-159.8" font-family="Arial" font-weight="bold" font-size="14.00">df_end</text>
<text text-anchor="start" x="451.15" y="-139.8" font-family="Arial" font-weight="bold" font-size="14.00">↓ 100 &#160;→ 6</text>
<polygon fill="none" stroke="darkgrey" points="448.5,-131 448.5,-173 521.5,-173 521.5,-131 448.5,-131"/>
<text text-anchor="start" x="450.5" y="-113.8" font-family="Arial" font-size="14.00">a</text>
<text text-anchor="start" x="450.5" y="-93.8" font-family="Arial" font-size="14.00">b</text>
<text text-anchor="start" x="450.5" y="-73.8" font-family="Arial" font-size="14.00">c</text>
<polygon fill="cyan" stroke="transparent" points="448.5,-47 448.5,-67 521.5,-67 521.5,-47 448.5,-47"/>
<text text-anchor="start" x="450.5" y="-53.8" font-family="Arial" font-size="14.00">a_squared</text>
<polygon fill="cyan" stroke="transparent" points="448.5,-27 448.5,-47 521.5,-47 521.5,-27 448.5,-27"/>
<text text-anchor="start" x="450.5" y="-33.8" font-family="Arial" font-size="14.00">b_squared</text>
<polygon fill="cyan" stroke="transparent" points="448.5,-7 448.5,-27 521.5,-27 521.5,-7 448.5,-7"/>
<text text-anchor="start" x="450.5" y="-13.8" font-family="Arial" font-size="14.00">c_squared</text>
</g>
<!-- df_start—compute_polynomial_features—df_end&#45;&gt;df_end -->
<g id="edge2" class="edge">
<title>df_start—compute_polynomial_features—df_end&#45;&gt;df_end</title>
<path fill="none" stroke="grey" d="M402.08,-90C411,-90 419.65,-90 427.78,-90"/>
<polygon fill="grey" stroke="grey" points="427.78,-93.5 437.78,-90 427.78,-86.5 427.78,-93.5"/>
</g>
</g>
</svg>
