<?xml version="1.0" encoding="UTF-8" standalone="no"?>
<!DOCTYPE svg PUBLIC "-//W3C//DTD SVG 1.1//EN"
 "http://www.w3.org/Graphics/SVG/1.1/DTD/svg11.dtd">
<!-- Generated by graphviz version 2.42.3 (20191010.1750)
 -->
<!-- Pages: 1 -->
<svg width="1224pt" height="447pt"
 viewBox="0.00 0.00 881.00 322.00" xmlns="http://www.w3.org/2000/svg" xmlns:xlink="http://www.w3.org/1999/xlink">
<g id="graph0" class="graph" transform="scale(0.72 0.72) rotate(0) translate(4 318)">
<polygon fill="transparent" stroke="transparent" points="-4,4 -4,-318 877,-318 877,4 -4,4"/>
<!-- df_start -->
<g id="node1" class="node">
<title>df_start</title>
<polygon fill="#f7f7f7" stroke="#f7f7f7" points="93,-201 0,-201 0,-83 93,-83 93,-201"/>
<text text-anchor="start" x="23.66" y="-181.8" font-family="Arial" font-weight="bold" font-size="14.00">df_start</text>
<text text-anchor="start" x="13.15" y="-161.8" font-family="Arial" font-weight="bold" font-size="14.00">↓ 100 &#160;→ 3</text>
<polygon fill="none" stroke="darkgrey" points="10.5,-153 10.5,-195 83.5,-195 83.5,-153 10.5,-153"/>
<text text-anchor="start" x="12.5" y="-135.8" font-family="Arial" font-size="14.00">a</text>
<text text-anchor="start" x="12.5" y="-115.8" font-family="Arial" font-size="14.00">b</text>
<text text-anchor="start" x="12.5" y="-95.8" font-family="Arial" font-size="14.00">c</text>
</g>
<!-- df_start—compute_polynomial_features—df_polynomial -->
<g id="node2" class="node">
<title>df_start—compute_polynomial_features—df_polynomial</title>
<ellipse fill="deepskyblue" stroke="deepskyblue" cx="265.5" cy="-197" rx="136.5" ry="18"/>
<text text-anchor="middle" x="265.5" y="-193.85" font-family="Arial" font-size="14.00">compute_polynomial_features</text>
</g>
<!-- df_start&#45;&gt;df_start—compute_polynomial_features—df_polynomial -->
<g id="edge1" class="edge">
<title>df_start&#45;&gt;df_start—compute_polynomial_features—df_polynomial</title>
<path fill="none" stroke="grey" d="M93.25,-153.6C121.77,-160.82 159.08,-170.28 191.6,-178.52"/>
<polygon fill="grey" stroke="grey" points="190.97,-181.97 201.52,-181.04 192.69,-175.19 190.97,-181.97"/>
</g>
<!-- df_start—compute_binary—df_binary -->
<g id="node3" class="node">
<title>df_start—compute_binary—df_binary</title>
<ellipse fill="deepskyblue" stroke="deepskyblue" cx="265.5" cy="-115" rx="78" ry="18"/>
<text text-anchor="middle" x="265.5" y="-111.85" font-family="Arial" font-size="14.00">compute_binary</text>
</g>
<!-- df_start&#45;&gt;df_start—compute_binary—df_binary -->
<g id="edge2" class="edge">
<title>df_start&#45;&gt;df_start—compute_binary—df_binary</title>
<path fill="none" stroke="grey" d="M93.25,-136.31C120.3,-132.94 155.26,-128.59 186.54,-124.7"/>
<polygon fill="grey" stroke="grey" points="187.06,-128.16 196.55,-123.45 186.19,-121.22 187.06,-128.16"/>
</g>
<!-- df_polynomial -->
<g id="node4" class="node">
<title>df_polynomial</title>
<polygon fill="#f7f7f7" stroke="#f7f7f7" points="550,-314 438,-314 438,-136 550,-136 550,-314"/>
<text text-anchor="start" x="450.81" y="-294.8" font-family="Arial" font-weight="bold" font-size="14.00">df_polynomial</text>
<text text-anchor="start" x="460.15" y="-274.8" font-family="Arial" font-weight="bold" font-size="14.00">↓ 100 &#160;→ 6</text>
<polygon fill="none" stroke="darkgrey" points="448,-266 448,-308 540,-308 540,-266 448,-266"/>
<text text-anchor="start" x="450" y="-248.8" font-family="Arial" font-size="14.00">a</text>
<text text-anchor="start" x="450" y="-228.8" font-family="Arial" font-size="14.00">b</text>
<text text-anchor="start" x="450" y="-208.8" font-family="Arial" font-size="14.00">c</text>
<polygon fill="cyan" stroke="transparent" points="448,-182 448,-202 540,-202 540,-182 448,-182"/>
<text text-anchor="start" x="450" y="-188.8" font-family="Arial" font-size="14.00">a_squared</text>
<polygon fill="cyan" stroke="transparent" points="448,-162 448,-182 540,-182 540,-162 448,-162"/>
<text text-anchor="start" x="450" y="-168.8" font-family="Arial" font-size="14.00">b_squared</text>
<polygon fill="cyan" stroke="transparent" points="448,-142 448,-162 540,-162 540,-142 448,-142"/>
<text text-anchor="start" x="450" y="-148.8" font-family="Arial" font-size="14.00">c_squared</text>
</g>
<!-- df_start—compute_polynomial_features—df_polynomial&#45;&gt;df_polynomial -->
<g id="edge3" class="edge">
<title>df_start—compute_polynomial_features—df_polynomial&#45;&gt;df_polynomial</title>
<path fill="none" stroke="grey" d="M365.85,-209.28C386.8,-211.87 408.41,-214.54 427.72,-216.93"/>
<polygon fill="grey" stroke="grey" points="427.55,-220.44 437.9,-218.19 428.4,-213.49 427.55,-220.44"/>
</g>
<!-- df_binary -->
<g id="node5" class="node">
<title>df_binary</title>
<polygon fill="#f7f7f7" stroke="#f7f7f7" points="540.5,-118 447.5,-118 447.5,0 540.5,0 540.5,-118"/>
<text text-anchor="start" x="465.7" y="-98.8" font-family="Arial" font-weight="bold" font-size="14.00">df_binary</text>
<text text-anchor="start" x="460.65" y="-78.8" font-family="Arial" font-weight="bold" font-size="14.00">↓ 100 &#160;→ 3</text>
<polygon fill="none" stroke="darkgrey" points="458,-70 458,-112 531,-112 531,-70 458,-70"/>
<text text-anchor="start" x="460" y="-52.8" font-family="Arial" font-size="14.00">a</text>
<text text-anchor="start" x="460" y="-32.8" font-family="Arial" font-size="14.00">b</text>
<text text-anchor="start" x="460" y="-12.8" font-family="Arial" font-size="14.00">c</text>
</g>
<!-- df_start—compute_binary—df_binary&#45;&gt;df_binary -->
<g id="edge4" class="edge">
<title>df_start—compute_binary—df_binary&#45;&gt;df_binary</title>
<path fill="none" stroke="grey" d="M319.32,-101.94C354.81,-93.17 401.49,-81.63 437.52,-72.72"/>
<polygon fill="grey" stroke="grey" points="438.51,-76.08 447.38,-70.28 436.83,-69.28 438.51,-76.08"/>
</g>
<!-- df_polynomial_df_binary—compute_merge—df_end -->
<g id="node6" class="node">
<title>df_polynomial_df_binary—compute_merge—df_end</title>
<ellipse fill="deepskyblue" stroke="deepskyblue" cx="665" cy="-142" rx="79" ry="18"/>
<text text-anchor="middle" x="665" y="-138.85" font-family="Arial" font-size="14.00">compute_merge</text>
</g>
<!-- df_polynomial&#45;&gt;df_polynomial_df_binary—compute_merge—df_end -->
<g id="edge5" class="edge">
<title>df_polynomial&#45;&gt;df_polynomial_df_binary—compute_merge—df_end</title>
<path fill="none" stroke="grey" d="M550.34,-197.82C573.48,-186.46 599.95,-173.46 621.52,-162.86"/>
<polygon fill="grey" stroke="grey" points="623.32,-165.88 630.75,-158.33 620.23,-159.6 623.32,-165.88"/>
</g>
<!-- df_binary&#45;&gt;df_polynomial_df_binary—compute_merge—df_end -->
<g id="edge6" class="edge">
<title>df_binary&#45;&gt;df_polynomial_df_binary—compute_merge—df_end</title>
<path fill="none" stroke="grey" d="M540.73,-81.46C565.96,-93.85 597.07,-109.13 621.72,-121.24"/>
<polygon fill="grey" stroke="grey" points="620.31,-124.44 630.83,-125.71 623.39,-118.16 620.31,-124.44"/>
</g>
<!-- df_end -->
<g id="node7" class="node">
<title>df_end</title>
<polygon fill="#f7f7f7" stroke="#f7f7f7" points="780,-22.5 780,-261.5 873,-261.5 873,-22.5 780,-22.5"/>
<text text-anchor="start" x="805.59" y="-241.8" font-family="Arial" font-weight="bold" font-size="14.00">df_end</text>
<text text-anchor="start" x="793.15" y="-221.8" font-family="Arial" font-weight="bold" font-size="14.00">↓ 100 &#160;→ 9</text>
<polygon fill="none" stroke="darkgrey" points="790.5,-213 790.5,-255 863.5,-255 863.5,-213 790.5,-213"/>
<text text-anchor="start" x="792.5" y="-195.8" font-family="Arial" font-size="14.00">a</text>
<text text-anchor="start" x="792.5" y="-175.8" font-family="Arial" font-size="14.00">b</text>
<text text-anchor="start" x="792.5" y="-155.8" font-family="Arial" font-size="14.00">c</text>
<text text-anchor="start" x="792.5" y="-135.8" font-family="Arial" font-size="14.00">a_squared</text>
<text text-anchor="start" x="792.5" y="-115.8" font-family="Arial" font-size="14.00">b_squared</text>
<text text-anchor="start" x="792.5" y="-95.8" font-family="Arial" font-size="14.00">c_squared</text>
<polygon fill="cyan" stroke="transparent" points="790.5,-69 790.5,-89 863.5,-89 863.5,-69 790.5,-69"/>
<text text-anchor="start" x="792.5" y="-75.8" font-family="Arial" font-size="14.00">a_merged</text>
<polygon fill="cyan" stroke="transparent" points="790.5,-49 790.5,-69 863.5,-69 863.5,-49 790.5,-49"/>
<text text-anchor="start" x="792.5" y="-55.8" font-family="Arial" font-size="14.00">b_merged</text>
<polygon fill="cyan" stroke="transparent" points="790.5,-29 790.5,-49 863.5,-49 863.5,-29 790.5,-29"/>
<text text-anchor="start" x="792.5" y="-35.8" font-family="Arial" font-size="14.00">c_merged</text>
</g>
<!-- df_polynomial_df_binary—compute_merge—df_end&#45;&gt;df_end -->
<g id="edge7" class="edge">
<title>df_polynomial_df_binary—compute_merge—df_end&#45;&gt;df_end</title>
<path fill="none" stroke="grey" d="M744.35,-142C752.88,-142 761.43,-142 769.61,-142"/>
<polygon fill="grey" stroke="grey" points="769.75,-145.5 779.75,-142 769.75,-138.5 769.75,-145.5"/>
</g>
</g>
</svg>
